<?xml version="1.0" encoding="UTF-8" standalone="no"?>
<svg
   width="122px"
   height="57px"
   viewBox="0 0 122 57"
   version="1.1"
   id="svg32"
   sodipodi:docname="logo_entrust_lockup.svg"
   inkscape:version="1.1 (c68e22c387, 2021-05-23)"
   xmlns:inkscape="http://www.inkscape.org/namespaces/inkscape"
   xmlns:sodipodi="http://sodipodi.sourceforge.net/DTD/sodipodi-0.dtd"
   xmlns="http://www.w3.org/2000/svg"
   xmlns:svg="http://www.w3.org/2000/svg">
  <sodipodi:namedview
     id="namedview34"
     pagecolor="#505050"
     bordercolor="#ffffff"
     borderopacity="1"
     inkscape:pageshadow="0"
     inkscape:pageopacity="0"
     inkscape:pagecheckerboard="1"
     showgrid="false"
     inkscape:zoom="8.6721311"
     inkscape:cx="60.942344"
     inkscape:cy="28.539698"
     inkscape:window-width="3440"
     inkscape:window-height="1377"
     inkscape:window-x="1432"
     inkscape:window-y="217"
     inkscape:window-maximized="1"
     inkscape:current-layer="svg32" />
  <defs
     id="defs7">
    <linearGradient
       x1="18.384295"
       y1="5.9138638"
       x2="18.384295"
       y2="30.853834"
       id="linearGradient-1"
       gradientTransform="scale(0.93063299,1.0745375)"
       gradientUnits="userSpaceOnUse">
      <stop
         stop-color="#C6168D"
         offset="20%"
         id="stop2" />
      <stop
         stop-color="#762B8A"
         offset="80%"
         id="stop4" />
    </linearGradient>
  </defs>
  <g
     id="Group-2"
     style="fill:none;fill-rule:nonzero;stroke:none;stroke-width:1">
    <g
       id="Group"
       transform="translate(42.5088)">
      <path
         d="M 17.108928,39.507264 0.001728,29.630016 V 9.877248 L 17.108928,0 34.216128,9.877248 V 29.631744 Z M 31.463424,28.041984 V 11.46528 L 17.1072,3.177792 2.750976,11.46528 V 28.041984 L 17.1072,36.329472 Z"
         id="Shape"
         fill="#762b8a" />
      <polygon
         id="Path"
         fill="url(#linearGradient-1)"
         points="28.714176,15.443136 28.712448,13.05504 17.108928,6.353856 5.50368,13.05504 5.50368,26.453952 17.108928,33.153408 28.714176,26.450496 28.714176,23.69952 19.816704,28.881792 19.816704,26.111808 28.703808,20.94336 28.703808,18.192384 19.816704,23.31072 19.816704,20.558016 "
         style="fill:url(#linearGradient-1)" />
    </g>
    <g
       id="g26"
       transform="translate(0,43.2)"
       fill="#3f454f">
      <polygon
         id="polygon12"
         points="3.008448,5.111424 9.948096,5.111424 9.948096,7.855488 3.010176,7.855488 3.010176,10.228032 13.428288,10.228032 13.428288,12.979008 0.03456,12.979008 0.03456,0.4752 12.989376,0.4752 12.989376,3.226176 3.008448,3.226176 " />
      <polygon
         id="polygon14"
         points="31.879872,0.4752 28.902528,0.4752 28.902528,9.744192 21.354624,0.4752 17.421696,0.4752 17.421696,12.979008 20.395584,12.979008 20.395584,3.720384 27.945216,12.979008 31.879872,12.979008 " />
      <polygon
         id="polygon16"
         points="49.686912,3.22272 49.686912,0.4752 35.403264,0.4752 35.403264,3.22272 41.055552,3.22272 41.055552,12.979008 44.031168,12.979008 44.031168,3.22272 " />
      <polygon
         id="polygon18"
         points="121.51469,3.22272 121.51469,0.4752 107.23104,0.4752 107.23104,3.22272 112.88333,3.22272 112.88333,12.979008 115.85894,12.979008 115.85894,3.22272 " />
      <path
         d="m 63.1152,0.471744 c 1.35648,0 2.434752,0.369792 3.238272,1.109376 0.801792,0.739584 1.204416,1.731456 1.204416,2.973888 0,1.980288 -0.910656,3.246912 -2.73024,3.798144 v 0 l 3.295296,4.620672 H 64.656576 L 61.56,8.62272 h -5.367168 v 4.351104 H 53.215488 V 0.470016 H 63.1152 Z m -6.922368,2.754432 v 2.654208 h 6.398784 c 1.774656,0 1.931904,-0.628992 1.931904,-1.337472 0,-0.800064 -0.513216,-1.318464 -1.836864,-1.318464 h -6.493824 z"
         id="path20" />
      <path
         d="m 79.183872,10.573632 c 3.872448,0 4.2336,-1.323648 4.2336,-2.467584 v -7.62912 h 2.973888 v 8.271936 c 0,2.960064 -3.172608,4.568832 -7.20576,4.568832 h 0.0017 c -4.03488,0 -7.20576,-1.610496 -7.20576,-4.568832 V 0.476928 h 2.973888 v 7.62912 c -0.0052,1.142208 0.357696,2.467584 4.228416,2.467584 z"
         id="path22" />
      <path
         d="M 102.3961,4.119552 104.25197,2.16 C 101.73773,0.157248 98.553024,0.216 97.6752,0.158976 96.795648,0.101952 90.896256,-0.020736 90.631872,3.988224 c -0.179712,2.7216 2.417472,3.61152 6.594048,3.7152 4.17658,0.10368 4.3511,0.82944 4.34592,1.285632 -0.005,0.49248 -0.53395,1.591488 -4.271616,1.531008 C 94.87584,10.48032 92.798784,9.631872 91.67904,8.6832 l -1.664064,2.179008 c 1.959552,1.5552 4.461696,2.3328 7.570368,2.3328 3.741116,0 6.955196,-0.971136 7.124546,-4.031424 C 104.90688,5.605632 101.27462,5.184 97.958592,4.910976 94.756608,4.64832 93.745728,4.56192 93.756096,3.770496 c 0.01037,-0.874368 2.431296,-0.988416 4.104,-0.895104 1.95264,0.110592 3.421444,0.601344 4.536004,1.24416 z"
         id="path24" />
    </g>
  </g>
</svg>
