<svg xmlns="http://www.w3.org/2000/svg" viewBox="0 0 122 57"><defs><linearGradient x1="18.384" y1="5.914" x2="18.384" y2="30.854" id="a" gradientTransform="scale(.93063 1.07454)" gradientUnits="userSpaceOnUse"><stop stop-color="#C6168D" offset="20%"/><stop stop-color="#762B8A" offset="80%"/></linearGradient></defs><g fill="none"><path d="M59.618 39.507L42.51 29.63V9.877L59.618 0l17.107 9.877v19.755zm14.354-11.465V11.465L59.616 3.178 45.26 11.465v16.577l14.356 8.287z" fill="#762b8a"/><path fill="url(#a)" d="M28.714 15.443l-.002-2.388L17.11 6.354 5.504 13.055v13.399l11.605 6.7 11.605-6.704V23.7l-8.897 5.182v-2.77l8.887-5.169v-2.75l-8.887 5.118v-2.753z" transform="translate(42.509)"/><g fill="#3f454f"><path d="M3.008 48.311h6.94v2.744H3.01v2.373h10.418v2.751H.035V43.675h12.954v2.751H3.01zM31.88 43.675h-2.977v9.27l-7.548-9.27h-3.933V56.18h2.974V46.92l7.55 9.259h3.934zM49.687 46.423v-2.748H35.403v2.748h5.653v9.756h2.975v-9.756zM121.515 46.423v-2.748H107.23v2.748h5.652v9.756h2.976v-9.756zM63.115 43.672c1.357 0 2.435.37 3.238 1.11.802.739 1.205 1.73 1.205 2.973 0 1.98-.91 3.247-2.73 3.798l3.295 4.62h-3.466l-3.097-4.35h-5.367v4.35h-2.978V43.67h9.9zm-6.922 2.754v2.654h6.399c1.774 0 1.932-.629 1.932-1.337 0-.8-.514-1.319-1.837-1.319h-6.494zM79.184 53.774c3.872 0 4.233-1.324 4.233-2.468v-7.63h2.974v8.273c0 2.96-3.172 4.569-7.205 4.569h.001c-4.035 0-7.205-1.61-7.205-4.57v-8.271h2.973v7.629c-.005 1.142.358 2.468 4.229 2.468zM102.396 47.32l1.856-1.96c-2.514-2.003-5.699-1.944-6.577-2.001-.88-.057-6.779-.18-7.043 3.83-.18 2.72 2.417 3.61 6.594 3.714 4.177.104 4.351.83 4.346 1.286-.005.493-.534 1.592-4.272 1.531-2.424-.04-4.501-.888-5.621-1.837l-1.664 2.18c1.96 1.554 4.462 2.332 7.57 2.332 3.741 0 6.956-.971 7.125-4.031.197-3.558-3.435-3.98-6.751-4.253-3.202-.263-4.213-.35-4.203-1.14.01-.875 2.431-.989 4.104-.896 1.953.111 3.422.602 4.536 1.245z"/></g></g></svg>