<svg height='100px' width='100px'  fill="#000000" xmlns="http://www.w3.org/2000/svg" xmlns:xlink="http://www.w3.org/1999/xlink" version="1.1" x="0px" y="0px" viewBox="0 0 20 20" enable-background="new 0 0 20 20" xml:space="preserve"><path fill="#000000" d="M19,12.5v-2c0-1.3-0.8-2.4-2-2.8V3.5h1v-2h-1v-1h-2v1H3v-1H1v1H0v2h1v12H0v2h1v1h2v-1h7v-7h3v2h-1v7h8v-7H19  z M8,3.5v5H3v-5H8z M8,15.5H3v-5h5V15.5z M10,3.5h5v4.2c-0.5,0.2-0.9,0.5-1.2,0.8H10V3.5z M15,10.5c0-0.6,0.4-1,1-1c0.6,0,1,0.4,1,1  v2h-2V10.5z M18,17.5h-4v-3h4V17.5z"></path></svg>