<svg xmlns="http://www.w3.org/2000/svg" xmlns:xlink="http://www.w3.org/1999/xlink" xml:space="preserve" viewBox="0 0 20 19">
  <defs>
    <linearGradient id="a">
      <stop offset="0" stop-color="#e040fb"/>
      <stop offset="1" stop-color="#7b1fa2"/>
    </linearGradient>
    <linearGradient id="b" x1="0" x2="0" y1="0" y2="19" gradientUnits="userSpaceOnUse" xlink:href="#a"/>
  </defs>
  <path fill="url(#b)" d="M19 12v-2c0-1.3-.8-2.4-2-2.8V3h1V1h-1V0h-2v1H3V0H1v1H0v2h1v12H0v2h1v1h2v-1h7v-7h3v2h-1v7h8v-7ZM8 3v5H3V3Zm0 12H3v-5h5Zm2-12h5v4.2c-.5.2-.9.5-1.2.8H10Zm5 7c0-.6.4-1 1-1s1 .4 1 1v2h-2zm3 7h-4v-3h4z"/>
</svg>
